<svg viewBox="0 0 1280 1024" xmlns:xlink="http://www.w3.org/1999/xlink" xmlns="http://www.w3.org/2000/svg" data-name="Layer 1" id="Layer_1">
  <defs>
    <style>
      .cls-1 {
        fill: url(#linear-gradient-2);
      }

      .cls-2 {
        fill: none;
        stroke: #fff;
        stroke-miterlimit: 10;
        stroke-width: 4.43px;
      }

      .cls-3 {
        fill: url(#linear-gradient);
      }

      .cls-4, .cls-5 {
        fill: #fff;
      }

      .cls-5 {
        font-family: LABYRINTHUS-REGULAR, LABYRINTHUS;
        font-size: 47.72px;
      }
    </style>
    <linearGradient gradientUnits="userSpaceOnUse" y2="734.62" x2="199.44" y1="274.65" x1="1108.02" id="linear-gradient">
      <stop stop-color="#7df9ff" offset="0"></stop>
      <stop stop-color="#9c27b0" offset="1"></stop>
    </linearGradient>
    <linearGradient xlink:href="#linear-gradient" y2="272.01" x2="1089.52" y1="777.41" x1="141.19" id="linear-gradient-2"></linearGradient>
  </defs>
  <rect ry="26.42" rx="26.42" height="487.66" width="932.4" y="267.81" x="173.68" class="cls-3"></rect>
  <path d="M1104.05,785.87H175.71c-18.77,0-34.05-15.27-34.05-34.05v-480.37c0-18.77,15.27-34.05,34.05-34.05h928.34c18.77,0,34.05,15.27,34.05,34.05v480.37c0,18.77-15.27,34.05-34.05,34.05ZM175.71,248.48c-12.67,0-22.97,10.31-22.97,22.97v480.37c0,12.67,10.31,22.97,22.97,22.97h928.34c12.67,0,22.97-10.31,22.97-22.97v-480.37c0-12.67-10.31-22.97-22.97-22.97H175.71Z" class="cls-1"></path>
  <g>
    <circle r="35.66" cy="362.23" cx="684.03" class="cls-2"></circle>
    <line y2="362.23" x2="746.45" y1="362.23" x1="587.13" class="cls-2"></line>
    <line y2="299.82" x2="684.03" y1="581.35" x1="684.03" class="cls-2"></line>
  </g>
  <rect height="208.55" width="66.3" y="422.51" x="859.41" class="cls-4"></rect>
  <g>
    <path d="M529.81,360.02v271.04h-52.63v-109.2h-165.79v109.2h-52.63v-271.04h52.63v109.21h165.79v-109.21h52.63Z" class="cls-4"></path>
    <path d="M633.62,578.43v-165.78h-46.49v-52.63h99.12v218.41h46.49v52.63h-145.62v-52.63h46.49Z" class="cls-4"></path>
    <path d="M1035.52,360.02v52.63h-271.05v-52.63h271.05Z" class="cls-4"></path>
  </g>
  <text transform="translate(258.79 708.12)" class="cls-5"><tspan y="0" x="0">GRADING REDEFINED</tspan></text>
  <g>
    <path d="M1020.19,573.58c.83,3.4,1.25,7.1,1.25,11.12s-.66,7.98-1.98,11.48c-1.32,3.5-3.18,6.51-5.58,9.03-2.4,2.52-5.27,4.49-8.62,5.91-3.35,1.42-7.08,2.13-11.19,2.13s-7.92-.72-11.3-2.16c-3.37-1.44-6.25-3.44-8.62-5.98-2.37-2.54-4.19-5.53-5.47-8.95-1.27-3.42-1.91-7.12-1.91-11.08s.62-7.93,1.87-11.45c1.25-3.52,2.92-6.39,5.03-8.59l9.02,7.93c-1.42,1.22-2.58,2.84-3.48,4.84-.9,2.01-1.36,4.28-1.36,6.83,0,2.2.4,4.23,1.21,6.09.81,1.86,1.93,3.47,3.37,4.84,1.44,1.37,3.16,2.43,5.14,3.19,1.98.76,4.15,1.14,6.49,1.14s4.6-.34,6.6-1.03c2.01-.69,3.73-1.7,5.17-3.05,1.44-1.34,2.57-3.01,3.37-4.99.81-1.98,1.21-4.24,1.21-6.79,0-1.47-.11-2.86-.33-4.18-.22-1.32-.57-2.54-1.06-3.67h-9.46v9.91h-10.13v-21.43h27.52c1.32,2.55,2.4,5.52,3.23,8.92Z" class="cls-4"></path>
    <path d="M1019.2,517.19c1.54,3.37,2.31,7.26,2.31,11.67,0,4.01-.66,7.72-1.98,11.11-1.32,3.4-3.19,6.35-5.61,8.84-2.42,2.49-5.32,4.45-8.69,5.87-3.38,1.42-7.09,2.13-11.15,2.13s-7.92-.72-11.3-2.16c-3.37-1.44-6.25-3.44-8.62-5.98-2.37-2.54-4.19-5.53-5.47-8.95-1.27-3.42-1.91-7.12-1.91-11.08,0-3.67.65-7.28,1.94-10.82,1.3-3.55,3.19-6.42,5.69-8.62l8.51,8.51c-1.61,1.17-2.81,2.71-3.59,4.62-.78,1.91-1.17,3.87-1.17,5.87,0,2.2.4,4.22,1.21,6.05.81,1.83,1.92,3.41,3.34,4.73,1.42,1.32,3.1,2.35,5.03,3.08,1.93.73,4.05,1.1,6.35,1.1s4.5-.37,6.46-1.1c1.96-.73,3.63-1.75,5.03-3.05,1.39-1.3,2.48-2.85,3.26-4.66.78-1.81,1.17-3.79,1.17-5.94,0-2.5-.49-4.67-1.47-6.53-.98-1.86-2.25-3.35-3.81-4.47l8.22-8.73c2.64,2.3,4.73,5.14,6.27,8.51Z" class="cls-4"></path>
    <path d="M1019.2,467c1.54,3.37,2.31,7.26,2.31,11.67,0,4.01-.66,7.72-1.98,11.11-1.32,3.4-3.19,6.35-5.61,8.84-2.42,2.49-5.32,4.45-8.69,5.87-3.38,1.42-7.09,2.13-11.15,2.13s-7.92-.72-11.3-2.16c-3.37-1.44-6.25-3.44-8.62-5.98-2.37-2.54-4.19-5.53-5.47-8.95-1.27-3.42-1.91-7.12-1.91-11.08,0-3.67.65-7.28,1.94-10.82,1.3-3.55,3.19-6.42,5.69-8.62l8.51,8.51c-1.61,1.17-2.81,2.71-3.59,4.62-.78,1.91-1.17,3.87-1.17,5.87,0,2.2.4,4.22,1.21,6.05.81,1.83,1.92,3.41,3.34,4.73,1.42,1.32,3.1,2.35,5.03,3.08,1.93.73,4.05,1.1,6.35,1.1s4.5-.37,6.46-1.1c1.96-.73,3.63-1.75,5.03-3.05,1.39-1.3,2.48-2.85,3.26-4.66.78-1.81,1.17-3.79,1.17-5.94,0-2.5-.49-4.67-1.47-6.53-.98-1.86-2.25-3.35-3.81-4.47l8.22-8.73c2.64,2.3,4.73,5.14,6.27,8.51Z" class="cls-4"></path>
  </g>
</svg>